<?xml version="1.0" encoding="utf-8"?>
<!-- Generator: Adobe Illustrator 26.3.1, SVG Export Plug-In . SVG Version: 6.00 Build 0)  -->
<svg version="1.1" id="Layer_1" xmlns="http://www.w3.org/2000/svg" xmlns:xlink="http://www.w3.org/1999/xlink" x="0px" y="0px"
	 viewBox="0 0 30 30" style="enable-background:new 0 0 30 30;" xml:space="preserve">
<style type="text/css">
	.st0{fill:#627EEA;}
	.st1{fill:#FFFFFF;fill-opacity:0.602;}
	.st2{fill:#FFFFFF;}
	.st3{fill:#FFFFFF;fill-opacity:0.2;}
</style>
<path class="st0" d="M15,30c8.3,0,15-6.7,15-15S23.3,0,15,0S0,6.7,0,15S6.7,30,15,30z"/>
<path class="st1" d="M15.5,3.7v8.4l7,3.1L15.5,3.7z"/>
<path class="st2" d="M15.5,3.7l-7,11.5l7-3.1V3.7z"/>
<path class="st1" d="M15.5,20.5v5.8l7-9.8L15.5,20.5z"/>
<path class="st2" d="M15.5,26.2v-5.7l-7-4.1L15.5,26.2z"/>
<path class="st3" d="M15.5,19.3l7-4.1l-7-3.1V19.3z"/>
<path class="st1" d="M8.5,15.2l7,4.1v-7.2L8.5,15.2z"/>
</svg>
